<svg width="88" height="88" viewBox="0 0 88 88" fill="none" xmlns="http://www.w3.org/2000/svg">
<rect x="29.832" y="21.4521" width="28.3333" height="49.2857" fill="white" stroke="black"/>
<rect x="13.0703" y="25.6431" width="61.8571" height="45.0952" fill="white" stroke="black"/>
<rect x="13.0703" y="38.2144" width="61.8571" height="36.7143" fill="white" stroke="black"/>
<rect x="8.88281" y="38.2144" width="70.2381" height="36.7143" fill="white" stroke="black"/>
<rect x="4.69141" y="50.7856" width="78.619" height="36.7143" fill="white" stroke="black"/>
<path d="M22.6719 62.4761V75.4284H23.785V64.9742H23.8862L28.2563 75.4284H29.3315L33.7016 64.9742H33.8028V75.4284H34.9159V62.4761H33.5498L28.8508 73.7588H28.737L24.0379 62.4761H22.6719Z" fill="black"/>
<path d="M42.8119 75.4284H47.4224C50.2052 75.4284 51.489 73.9928 51.489 72.0322C51.489 70.0654 50.1862 68.8827 48.9276 68.7941V68.693C50.085 68.3831 50.9831 67.485 50.9831 65.866C50.9831 63.918 49.7119 62.4761 47.1821 62.4761H42.8119V75.4284ZM43.9946 74.3659V69.376H47.473C49.2122 69.376 50.357 70.5523 50.357 72.0322C50.357 73.373 49.4209 74.3659 47.4224 74.3659H43.9946ZM43.9946 68.3261V63.5386H47.1821C48.9529 63.5386 49.851 64.4936 49.851 65.866C49.851 67.2889 48.8201 68.3261 47.2896 68.3261H43.9946Z" fill="black"/>
<path d="M58.8143 75.4284L60.1993 71.5263H65.6383L67.0233 75.4284H68.2629L63.5512 62.4761H62.2864L57.5747 75.4284H58.8143ZM60.5788 70.4638L62.8745 64.0129H62.9631L65.2588 70.4638H60.5788Z" fill="black"/>
<path d="M66.7876 4.19043L52.3828 15.7545V26.6428L66.7876 38.2381L80.1447 20.9523L66.7876 4.19043Z" fill="#F1B28F" stroke="black"/>
<path d="M21.7398 4.19043L36.1445 15.7545V26.6428L21.7398 38.2381L8.38263 20.9523L21.7398 4.19043Z" fill="#F1B28F" stroke="black"/>
<rect x="36.1172" y="15.6904" width="16.2857" height="10.5238" rx="1.5" fill="#F1B28F" stroke="black"/>
</svg>
