<svg width="88" height="88" viewBox="0 0 88 88" fill="none" xmlns="http://www.w3.org/2000/svg">
<path d="M57.6821 61.8826C55.5795 63.9852 51.1162 66.735 45.5061 69.6641C39.9166 72.5824 33.2494 75.6485 26.7924 78.3908C20.3353 81.1332 14.0969 83.5482 9.36634 85.1656C6.99931 85.9749 5.01993 86.581 3.58338 86.9291C2.86275 87.1038 2.29548 87.2093 1.89126 87.2463C1.70953 87.2629 1.57639 87.264 1.48505 87.2563C1.47734 87.165 1.4785 87.0318 1.4951 86.8501C1.53203 86.4459 1.63758 85.8786 1.81223 85.158C2.16038 83.7214 2.76647 81.7421 3.57577 79.375C5.19315 74.6445 7.60817 68.4061 10.3505 61.949C13.0929 55.492 16.159 48.8248 19.0773 43.2353C22.0064 37.6252 24.7561 33.1619 26.8587 31.0593C35.3174 22.6006 49.0762 22.638 57.5898 31.1516C66.1034 39.6652 66.1408 53.4239 57.6821 61.8826ZM1.38567 87.2401C1.3857 87.2401 1.38642 87.2403 1.38775 87.2409L1.38567 87.2401ZM1.50052 87.3536C1.50105 87.355 1.50129 87.3557 1.50127 87.3557L1.50052 87.3536Z" fill="white" stroke="black"/>
<path d="M46.6194 69.2116L34.6289 57.2212" stroke="black"/>
<path d="M62.1626 56.333L48.8398 43.0103" stroke="black"/>
<path d="M41.2868 49.6716L24.8555 33.2402" stroke="black"/>
<path d="M27.7425 64.5487L15.0859 51.8921" stroke="black"/>
<path d="M27.5234 78.5376L20.418 71.4321" stroke="black"/>
<path d="M65.9247 23.0152C69.4396 15.7043 67.6456 7.07687 60.5341 1.18836C51.4918 8.69054 51.0717 20.4989 59.0581 28.4492L60.4906 29.8816C68.4411 37.8679 80.2676 37.4478 87.752 28.4057C81.8634 21.2944 73.2357 19.5004 65.9247 23.0152Z" fill="#A1EDB1"/>
</svg>
