<svg width="88" height="88" viewBox="0 0 88 88" fill="none" xmlns="http://www.w3.org/2000/svg">
<rect x="17.2617" y="21.4521" width="11.5714" height="45.0952" fill="white" stroke="black"/>
<path d="M62.8752 79.1189L66.9828 29.5713H68.3558H70.5122L74.3631 79.1189H62.8752Z" fill="white" stroke="black"/>
<rect x="17.2617" y="67.0239" width="11.5714" height="3.71429" fill="white" stroke="black"/>
<path d="M17.2617 71.2144H28.8331V74.6191C28.8331 77.1044 26.8184 79.1191 24.3331 79.1191H21.7617C19.2764 79.1191 17.2617 77.1044 17.2617 74.6191V71.2144Z" fill="white" stroke="black"/>
<path d="M22.7853 8.38086L29.0711 21.2142H17.0234L22.7853 8.38086Z" fill="white" stroke="black"/>
<path d="M25.4059 13.8809H20.4297" stroke="black"/>
<rect x="38.2148" y="8.88086" width="15.7619" height="70.2381" fill="#FFEFD7" stroke="black"/>
<path d="M37.7148 12.5713H41.6434" stroke="black"/>
<path d="M37.7148 20.9521H41.6434" stroke="black"/>
<path d="M37.7148 29.3335H41.6434" stroke="black"/>
<path d="M37.7148 37.7144H41.6434" stroke="black"/>
<path d="M37.7148 46.0952H41.6434" stroke="black"/>
<path d="M37.7148 54.4761H41.6434" stroke="black"/>
<path d="M37.7148 62.8569H41.6434" stroke="black"/>
<path d="M37.7148 71.2383H41.6434" stroke="black"/>
<path d="M37.7148 16.7617H41.6434" stroke="black"/>
<path d="M37.7148 25.1431H41.6434" stroke="black"/>
<path d="M37.7148 33.5239H41.6434" stroke="black"/>
<path d="M37.7148 41.9048H41.6434" stroke="black"/>
<path d="M37.7148 50.2856H41.6434" stroke="black"/>
<path d="M37.7148 58.6665H41.6434" stroke="black"/>
<path d="M37.7148 67.0479H41.6434" stroke="black"/>
<path d="M37.7148 75.4287H41.6434" stroke="black"/>
<path d="M75.395 16.8874L75.3956 16.8889C76.1273 18.7347 76.5002 20.7427 76.5002 22.8605C76.5002 27.0006 72.9837 30.4047 68.6192 30.4047C64.2548 30.4047 60.7383 27.0006 60.7383 22.8605C60.7383 20.7428 61.993 18.8662 63.3341 16.896L63.3342 16.8957C63.4003 16.7985 63.4669 16.7009 63.5339 16.6028C64.9659 14.5051 66.5565 12.1749 65.9092 8.91388C68.1564 9.13831 70.8722 10.4919 72.6922 12.5137C73.8532 13.8097 74.7677 15.2901 75.395 16.8874Z" fill="white" stroke="black"/>
</svg>
