<svg width="120" height="120" viewBox="0 0 120 120" fill="none" xmlns="http://www.w3.org/2000/svg">
<g clip-path="url(#clip0_3566_2532)">
<path d="M57.3583 85.7143C57.3583 99.6397 46.0694 110.929 32.144 110.929C18.2185 110.929 6.92969 99.6397 6.92969 85.7143C6.92969 71.7888 18.2185 60.5 32.144 60.5C46.0694 60.5 57.3583 71.7888 57.3583 85.7143Z" fill="white" stroke="black"/>
<path d="M114.499 85.7143C114.499 99.6397 103.21 110.929 89.2846 110.929C75.3591 110.929 64.0703 99.6397 64.0703 85.7143C64.0703 71.7888 75.3591 60.5 89.2846 60.5C103.21 60.5 114.499 71.7888 114.499 85.7143Z" fill="white" stroke="black"/>
<path d="M105.93 85.7141C105.93 94.9057 98.479 102.357 89.2874 102.357C80.0958 102.357 72.6445 94.9057 72.6445 85.7141C72.6445 76.5226 80.0958 69.0713 89.2874 69.0713C98.479 69.0713 105.93 76.5226 105.93 85.7141Z" fill="white" stroke="black"/>
<path d="M97.3577 85.7145C97.3577 90.1722 93.744 93.7859 89.2863 93.7859C84.8285 93.7859 81.2148 90.1722 81.2148 85.7145C81.2148 81.2568 84.8285 77.6431 89.2863 77.6431C93.744 77.6431 97.3577 81.2568 97.3577 85.7145Z" fill="#BDF0ED" stroke="black"/>
<path d="M48.7857 85.7141C48.7857 94.9057 41.3345 102.357 32.1429 102.357C22.9513 102.357 15.5 94.9057 15.5 85.7141C15.5 76.5226 22.9513 69.0713 32.1429 69.0713C41.3345 69.0713 48.7857 76.5226 48.7857 85.7141Z" fill="white" stroke="black"/>
<path d="M6.4269 85.7141H0.355469V8.57129H119.641V85.7141H114.641" stroke="black"/>
<path d="M57.8555 86.0713H63.9269" stroke="black"/>
<path d="M40.2132 85.7145C40.2132 90.1722 36.5995 93.7859 32.1417 93.7859C27.684 93.7859 24.0703 90.1722 24.0703 85.7145C24.0703 81.2568 27.684 77.6431 32.1417 77.6431C36.5995 77.6431 40.2132 81.2568 40.2132 85.7145Z" fill="#BDF0ED" stroke="black"/>
<path d="M15 13.5713H42.8571" stroke="black"/>
</g>
<defs>
<clipPath id="clip0_3566_2532">
<rect width="120" height="120" fill="white"/>
</clipPath>
</defs>
</svg>
