<svg width="88" height="88" viewBox="0 0 88 88" fill="none" xmlns="http://www.w3.org/2000/svg">
<g clip-path="url(#clip0_3643_1353)">
<path d="M86.965 63.1003L86.9656 63.1008C87.5332 63.5252 87.6685 64.3176 87.2755 64.9059L87.2752 64.9062L72.609 86.9063L73.025 87.1836L72.6089 86.9063C72.4059 87.2109 72.0858 87.419 71.7242 87.4802L71.72 87.4809C71.6495 87.4935 71.5751 87.5 71.4996 87.5C71.213 87.5 70.9321 87.4075 70.7011 87.2336L70.7003 87.233L63.3671 81.733L63.3665 81.7326C62.7989 81.3082 62.6637 80.5159 63.0568 79.9276L63.0571 79.9271L65.762 75.8695L66.0243 75.476L65.646 75.1922L62.2886 72.674L61.6465 72.1924L61.4973 72.9811C59.9363 81.2331 52.6952 87.5 44.0001 87.5C35.3049 87.5 28.0638 81.2333 26.5028 72.9811L26.3536 72.1924L25.7115 72.674L22.3542 75.1922L21.9758 75.476L22.2381 75.8695L24.9431 79.9271L24.9434 79.9276C25.3365 80.5159 25.2012 81.3082 24.6336 81.7326L24.633 81.733L17.2998 87.233L17.2992 87.2335C17.068 87.4074 16.787 87.5 16.5005 87.5C16.425 87.5 16.3504 87.4935 16.2803 87.4809L16.276 87.4802C15.9145 87.419 15.5942 87.2109 15.3912 86.9063L14.9751 87.1836L15.3912 86.9063L0.724889 64.9062L0.724588 64.9058C0.331497 64.3175 0.466754 63.5252 1.03434 63.1008L1.03493 63.1003L8.36817 57.6003L8.3704 57.5987C8.66156 57.3777 9.04191 57.2884 9.38438 57.3518L9.38437 57.3519L9.39199 57.3532C9.75344 57.4144 10.0737 57.6225 10.2767 57.9271L10.2768 57.9272L12.8688 61.815L13.162 62.2548L13.5849 61.9376L19.0961 57.8028L19.4033 57.5723L19.2598 57.216C18.0589 54.2339 17.1078 50.9726 16.4324 47.467L16.4004 47.3012L16.2746 47.1888C13.3646 44.5884 11.5008 40.8555 11.5008 36.6668C11.5008 32.7259 13.1241 29.1618 15.733 26.5897L15.8442 26.48L15.8733 26.3265C18.7633 11.0417 30.2628 0.5 44.0001 0.5C57.7374 0.5 69.2368 11.0417 72.1267 26.3265L72.1557 26.48L72.267 26.5897C74.8759 29.1619 76.4992 32.7259 76.4992 36.6668C76.4992 40.8555 74.6353 44.5884 71.7254 47.1888L71.5995 47.3012L71.5676 47.467C70.8922 50.9726 69.9413 54.2339 68.7402 57.216L68.5967 57.5723L68.9039 57.8028L74.4151 61.9376L74.838 62.2548L75.1312 61.815L77.7232 57.9272L77.7232 57.9271C77.9263 57.6225 78.2464 57.4144 78.6079 57.3532L78.608 57.3533L78.6179 57.3514C78.9531 57.2877 79.3339 57.3762 79.6312 57.5999L79.6318 57.6003L86.965 63.1003ZM14.1673 36.6666C14.1673 43.0086 19.3252 48.1666 25.6671 48.1666C32.0089 48.1666 37.1668 43.0086 37.1668 36.6666C37.1668 30.3247 32.0089 25.1666 25.6671 25.1666C19.3252 25.1666 14.1673 30.3247 14.1673 36.6666ZM32.5003 69.6668C32.5003 76.0087 37.6582 81.1668 44.0001 81.1668C50.3419 81.1668 55.4998 76.0085 55.4998 69.6668C55.4998 63.3248 50.3419 58.1668 44.0001 58.1668C37.6582 58.1668 32.5003 63.3248 32.5003 69.6668ZM50.8333 36.6666C50.8333 43.0086 55.9912 48.1666 62.3331 48.1666C68.6749 48.1666 73.8328 43.0086 73.8328 36.6666C73.8328 30.3247 68.6749 25.1666 62.3331 25.1666C55.9912 25.1666 50.8333 30.3247 50.8333 36.6666Z" fill="white" stroke="black"/>
<path d="M40.1335 63.7385L40.1335 63.7385C39.5739 63.2297 38.6498 63.2298 38.0905 63.7384L38.0905 63.7385C37.5584 64.2222 37.5584 64.9839 38.0904 65.4674L38.0905 65.4675L40.0111 67.2135C40.286 67.4635 40.6543 67.595 41.0327 67.595C41.4109 67.595 41.7791 67.4636 42.0543 67.2135L40.1335 63.7385ZM40.1335 63.7385L42.0543 65.4846L42.0543 65.4846M40.1335 63.7385L42.0543 65.4846M42.0543 65.4846C42.5863 65.9681 42.5864 66.7297 42.0544 67.2135L42.0543 65.4846Z" fill="#5DD8AA" stroke="black"/>
<path d="M46.4354 67.23L46.4354 67.2299C45.9486 66.7433 45.9486 65.955 46.4354 65.4681L48.1814 63.7221L47.8279 63.3685L48.1814 63.722C48.6682 63.2352 49.4565 63.2352 49.9433 63.722L49.9433 63.7221C50.4301 64.2087 50.4301 64.997 49.9433 65.4839L48.1974 67.2299C48.1974 67.2299 48.1973 67.2299 48.1973 67.23C47.9536 67.4735 47.6357 67.595 47.3164 67.595C46.997 67.595 46.6789 67.4734 46.4354 67.23Z" fill="#5DD8AA" stroke="black"/>
<path d="M48.1971 72.1034L48.1971 72.1034C47.7103 71.6166 46.9221 71.6166 46.4355 72.1034L46.4354 72.1034C45.9486 72.5903 45.9486 73.3786 46.4354 73.8652L46.4354 73.8652L48.1814 75.6113C48.4249 75.8548 48.743 75.9764 49.0624 75.9764C49.3817 75.9764 49.6996 75.8549 49.9433 75.6113C49.9433 75.6113 49.9434 75.6112 49.9434 75.6112M48.1971 72.1034L50.2969 73.4959C50.9789 74.1779 50.9789 75.2828 50.2969 75.9649L49.9434 75.6112M48.1971 72.1034L49.9433 73.8495L49.9433 73.8495C50.43 74.3361 50.4301 75.1244 49.9434 75.6112M48.1971 72.1034L49.9434 75.6112" fill="#5DD8AA" stroke="black"/>
<path d="M38.0905 75.5949L38.0904 75.5948C37.5584 75.1113 37.5584 74.3496 38.0905 73.8658L40.011 72.1197C40.011 72.1197 40.0111 72.1197 40.0111 72.1197C40.5706 71.6111 41.4947 71.6111 42.0543 72.1197C42.5863 72.6033 42.5864 73.365 42.0543 73.8488L40.1337 75.5948C40.1337 75.5948 40.1337 75.5949 40.1337 75.5949C39.8585 75.8449 39.4903 75.9764 39.1121 75.9764C38.7337 75.9764 38.3654 75.8448 38.0905 75.5949Z" fill="#5DD8AA" stroke="black"/>
<path d="M74.9051 61.8096L65.4766 75.9524" stroke="black"/>
<path d="M13.0949 61.8096L22.5234 75.9524" stroke="black"/>
<path d="M68.8791 57.3569L61.8077 72.5474M19.1172 57.3569L26.1886 72.5474" stroke="black"/>
</g>
<defs>
<clipPath id="clip0_3643_1353">
<rect width="88" height="88" fill="white"/>
</clipPath>
</defs>
</svg>
