<svg width="120" height="120" viewBox="0 0 120 120" fill="none" xmlns="http://www.w3.org/2000/svg">
<g clip-path="url(#clip0_3566_2643)">
<path d="M63.4624 78.4614H90.0009L97.5009 82.4999L109.616 119.423H70.9624L62.3086 101.538L63.4624 78.4614Z" fill="#E1E1D7" stroke="black"/>
<path d="M74.3477 75.9311C74.352 75.1227 74.6925 74.3733 75.0438 73.8845C77.9593 73.4923 82.7814 73.1096 88.0096 73.208C93.3679 73.3089 99.111 73.9147 103.659 75.5091C112.614 78.6484 117.886 83.0524 119.502 84.9404V119.5H92.4798C92.5539 118.302 92.5462 116.582 92.3202 114.744C92.0577 112.61 91.4954 110.27 90.3887 108.403C89.7102 107.258 88.8247 106.096 87.8878 104.889C87.7871 104.76 87.6858 104.63 87.584 104.499C86.7321 103.404 85.8451 102.264 85.007 101.035C83.1344 98.2876 81.5334 95.1307 81.213 91.1995C80.8839 87.1619 80.5513 84.6534 79.8158 82.8488C79.0603 80.9947 77.8939 79.9128 76.0406 78.6725C74.7163 77.7862 74.3432 76.7901 74.3477 75.9311Z" fill="white" stroke="black"/>
<path d="M66.131 86.6887V86.8959L66.2775 87.0423C66.307 87.0718 66.407 87.1939 66.5967 87.4721C66.7783 87.7384 67.0259 88.1234 67.3474 88.6537C67.9902 89.7137 68.9221 91.3441 70.2037 93.7468C71.8585 96.8491 73.79 98.3623 75.4107 99.1782C76.2148 99.583 76.9315 99.8105 77.4674 99.975C77.499 99.9847 77.5297 99.9941 77.5595 100.003C77.789 100.073 77.9665 100.128 78.1083 100.182C78.2625 100.24 78.3054 100.274 78.306 100.273C78.3061 100.273 78.3054 100.272 78.3041 100.271C78.4224 100.4 78.5048 100.611 78.5406 101.07C78.5633 101.362 78.565 101.693 78.5672 102.099C78.5685 102.348 78.57 102.624 78.5765 102.938C78.6099 104.551 78.7806 106.85 79.8011 110.115C81.2217 114.661 81.4686 118.034 81.417 119.5H0.5V56.7342C1.38069 55.392 3.68909 53.09 7.02878 50.5127C10.4496 47.8727 14.9022 44.9822 19.8845 42.591C29.7298 37.8659 37.6166 37.4311 42.406 37.423C43.582 38.1544 45.2858 39.3988 46.7077 40.8363C47.4427 41.5794 48.0906 42.3623 48.5522 43.1413C49.0156 43.9236 49.2726 44.6704 49.2726 45.3509C49.2726 47.4463 49.898 49.8246 50.8218 51.8772C51.7394 53.916 52.992 55.7233 54.3119 56.6031C54.4815 56.7162 54.6455 56.9409 54.7771 57.3446C54.9076 57.7448 54.9884 58.267 55.0312 58.8985C55.1039 59.9736 55.0619 61.2767 55.0165 62.6849C55.0084 62.9356 55.0003 63.1897 54.9926 63.4464C54.9425 65.1258 54.9157 66.9037 55.1089 68.4944C55.3008 70.0737 55.7181 71.5538 56.6239 72.5728C57.9953 74.1154 59.9683 75.0544 61.8322 75.6094C63.4433 76.0892 65.0139 76.2941 66.131 76.3415V86.6887Z" fill="white" stroke="black"/>
<mask id="path-4-inside-1_3566_2643" fill="white">
<path fill-rule="evenodd" clip-rule="evenodd" d="M25.9633 50.769C22.4585 50.769 19.6172 53.6103 19.6172 57.1152V63.3458C19.6172 64.0893 20.2784 64.6151 21.0218 64.6151H30.9048C31.6483 64.6151 32.3095 64.0893 32.3095 63.3458V57.1152C32.3095 53.6103 29.4682 50.769 25.9633 50.769Z"/>
</mask>
<path fill-rule="evenodd" clip-rule="evenodd" d="M25.9633 50.769C22.4585 50.769 19.6172 53.6103 19.6172 57.1152V63.3458C19.6172 64.0893 20.2784 64.6151 21.0218 64.6151H30.9048C31.6483 64.6151 32.3095 64.0893 32.3095 63.3458V57.1152C32.3095 53.6103 29.4682 50.769 25.9633 50.769Z" fill="white"/>
<path d="M20.6172 57.1152C20.6172 54.1626 23.0107 51.769 25.9633 51.769V49.769C21.9062 49.769 18.6172 53.058 18.6172 57.1152H20.6172ZM20.6172 63.3458V57.1152H18.6172V63.3458H20.6172ZM21.0218 65.6151H30.9048V63.6151H21.0218V65.6151ZM31.3095 57.1152V63.3458H33.3095V57.1152H31.3095ZM25.9633 51.769C28.9159 51.769 31.3095 54.1626 31.3095 57.1152H33.3095C33.3095 53.058 30.0205 49.769 25.9633 49.769V51.769ZM30.9048 65.6151C32.064 65.6151 33.3095 64.7689 33.3095 63.3458H31.3095C31.3095 63.4013 31.2906 63.4517 31.2301 63.5044C31.1613 63.5642 31.0456 63.6151 30.9048 63.6151V65.6151ZM18.6172 63.3458C18.6172 64.7689 19.8627 65.6151 21.0218 65.6151V63.6151C20.881 63.6151 20.7654 63.5642 20.6966 63.5044C20.636 63.4517 20.6172 63.4013 20.6172 63.3458H18.6172Z" fill="black" mask="url(#path-4-inside-1_3566_2643)"/>
<mask id="path-6-inside-2_3566_2643" fill="white">
<path fill-rule="evenodd" clip-rule="evenodd" d="M15.5766 73.8462C12.0717 73.8462 9.23047 76.6875 9.23047 80.1924V86.423C9.23047 87.1664 9.89171 87.6922 10.6351 87.6922H20.5181C21.2615 87.6922 21.9228 87.1664 21.9228 86.423V80.1923C21.9228 76.6875 19.0815 73.8462 15.5766 73.8462Z"/>
</mask>
<path fill-rule="evenodd" clip-rule="evenodd" d="M15.5766 73.8462C12.0717 73.8462 9.23047 76.6875 9.23047 80.1924V86.423C9.23047 87.1664 9.89171 87.6922 10.6351 87.6922H20.5181C21.2615 87.6922 21.9228 87.1664 21.9228 86.423V80.1923C21.9228 76.6875 19.0815 73.8462 15.5766 73.8462Z" fill="white"/>
<path d="M10.2305 80.1924C10.2305 77.2398 12.624 74.8462 15.5766 74.8462V72.8462C11.5195 72.8462 8.23047 76.1352 8.23047 80.1924H10.2305ZM10.2305 86.423V80.1924H8.23047V86.423H10.2305ZM10.6351 88.6922H20.5181V86.6922H10.6351V88.6922ZM20.9228 80.1923V86.423H22.9228V80.1923H20.9228ZM15.5766 74.8462C18.5292 74.8462 20.9228 77.2397 20.9228 80.1923H22.9228C22.9228 76.1352 19.6338 72.8462 15.5766 72.8462V74.8462ZM20.5181 88.6922C21.6773 88.6922 22.9228 87.846 22.9228 86.423H20.9228C20.9228 86.4785 20.9039 86.5289 20.8433 86.5815C20.7745 86.6413 20.6589 86.6922 20.5181 86.6922V88.6922ZM8.23047 86.423C8.23047 87.846 9.47599 88.6922 10.6351 88.6922V86.6922C10.4943 86.6922 10.3787 86.6413 10.3099 86.5815C10.2493 86.5289 10.2305 86.4785 10.2305 86.423H8.23047Z" fill="black" mask="url(#path-6-inside-2_3566_2643)"/>
<mask id="path-8-inside-3_3566_2643" fill="white">
<path fill-rule="evenodd" clip-rule="evenodd" d="M37.4985 73.8462C33.9936 73.8462 31.1523 76.6875 31.1523 80.1924V86.423C31.1523 87.1664 31.8136 87.6922 32.557 87.6922H42.44C43.1834 87.6922 43.8447 87.1664 43.8447 86.423V80.1923C43.8447 76.6875 41.0034 73.8462 37.4985 73.8462Z"/>
</mask>
<path fill-rule="evenodd" clip-rule="evenodd" d="M37.4985 73.8462C33.9936 73.8462 31.1523 76.6875 31.1523 80.1924V86.423C31.1523 87.1664 31.8136 87.6922 32.557 87.6922H42.44C43.1834 87.6922 43.8447 87.1664 43.8447 86.423V80.1923C43.8447 76.6875 41.0034 73.8462 37.4985 73.8462Z" fill="white"/>
<path d="M32.1523 80.1924C32.1523 77.2398 34.5459 74.8462 37.4985 74.8462V72.8462C33.4413 72.8462 30.1523 76.1352 30.1523 80.1924H32.1523ZM32.1523 86.423V80.1924H30.1523V86.423H32.1523ZM32.557 88.6922H42.44V86.6922H32.557V88.6922ZM42.8447 80.1923V86.423H44.8447V80.1923H42.8447ZM37.4985 74.8462C40.4511 74.8462 42.8447 77.2397 42.8447 80.1923H44.8447C44.8447 76.1352 41.5557 72.8462 37.4985 72.8462V74.8462ZM42.44 88.6922C43.5991 88.6922 44.8447 87.846 44.8447 86.423H42.8447C42.8447 86.4785 42.8258 86.5289 42.7652 86.5815C42.6964 86.6413 42.5808 86.6922 42.44 86.6922V88.6922ZM30.1523 86.423C30.1523 87.846 31.3979 88.6922 32.557 88.6922V86.6922C32.4162 86.6922 32.3006 86.6413 32.2318 86.5815C32.1712 86.5289 32.1523 86.4785 32.1523 86.423H30.1523Z" fill="black" mask="url(#path-8-inside-3_3566_2643)"/>
<mask id="path-10-inside-4_3566_2643" fill="white">
<path fill-rule="evenodd" clip-rule="evenodd" d="M15.5766 96.9229C12.0717 96.9229 9.23047 99.7641 9.23047 103.269V109.5C9.23047 110.243 9.89175 110.769 10.6352 110.769H20.518C21.2615 110.769 21.9228 110.243 21.9228 109.5V103.269C21.9228 99.7641 19.0815 96.9229 15.5766 96.9229Z"/>
</mask>
<path fill-rule="evenodd" clip-rule="evenodd" d="M15.5766 96.9229C12.0717 96.9229 9.23047 99.7641 9.23047 103.269V109.5C9.23047 110.243 9.89175 110.769 10.6352 110.769H20.518C21.2615 110.769 21.9228 110.243 21.9228 109.5V103.269C21.9228 99.7641 19.0815 96.9229 15.5766 96.9229Z" fill="white"/>
<path d="M10.2305 103.269C10.2305 100.316 12.624 97.9229 15.5766 97.9229V95.9229C11.5195 95.9229 8.23047 99.2118 8.23047 103.269H10.2305ZM10.2305 109.5V103.269H8.23047V109.5H10.2305ZM10.6352 111.769H20.518V109.769H10.6352V111.769ZM20.9228 103.269V109.5H22.9228V103.269H20.9228ZM15.5766 97.9229C18.5292 97.9229 20.9228 100.316 20.9228 103.269H22.9228C22.9228 99.2118 19.6338 95.9229 15.5766 95.9229V97.9229ZM20.518 111.769C21.6772 111.769 22.9228 110.923 22.9228 109.5H20.9228C20.9228 109.555 20.9039 109.606 20.8433 109.658C20.7745 109.718 20.6588 109.769 20.518 109.769V111.769ZM8.23047 109.5C8.23047 110.923 9.47604 111.769 10.6352 111.769V109.769C10.4944 109.769 10.3787 109.718 10.3099 109.658C10.2493 109.606 10.2305 109.555 10.2305 109.5H8.23047Z" fill="black" mask="url(#path-10-inside-4_3566_2643)"/>
<mask id="path-12-inside-5_3566_2643" fill="white">
<path fill-rule="evenodd" clip-rule="evenodd" d="M37.4985 96.9229C33.9936 96.9229 31.1523 99.7641 31.1523 103.269V109.5C31.1523 110.243 31.8136 110.769 32.5571 110.769H42.4399C43.1834 110.769 43.8447 110.243 43.8447 109.5V103.269C43.8447 99.7641 41.0034 96.9229 37.4985 96.9229Z"/>
</mask>
<path fill-rule="evenodd" clip-rule="evenodd" d="M37.4985 96.9229C33.9936 96.9229 31.1523 99.7641 31.1523 103.269V109.5C31.1523 110.243 31.8136 110.769 32.5571 110.769H42.4399C43.1834 110.769 43.8447 110.243 43.8447 109.5V103.269C43.8447 99.7641 41.0034 96.9229 37.4985 96.9229Z" fill="white"/>
<path d="M32.1523 103.269C32.1523 100.316 34.5459 97.9229 37.4985 97.9229V95.9229C33.4413 95.9229 30.1523 99.2118 30.1523 103.269H32.1523ZM32.1523 109.5V103.269H30.1523V109.5H32.1523ZM32.5571 111.769H42.4399V109.769H32.5571V111.769ZM42.8447 103.269V109.5H44.8447V103.269H42.8447ZM37.4985 97.9229C40.4511 97.9229 42.8447 100.316 42.8447 103.269H44.8447C44.8447 99.2118 41.5557 95.9229 37.4985 95.9229V97.9229ZM42.4399 111.769C43.5991 111.769 44.8447 110.923 44.8447 109.5H42.8447C42.8447 109.555 42.8258 109.606 42.7652 109.658C42.6964 109.718 42.5807 109.769 42.4399 109.769V111.769ZM30.1523 109.5C30.1523 110.923 31.3979 111.769 32.5571 111.769V109.769C32.4163 109.769 32.3006 109.718 32.2318 109.658C32.1712 109.606 32.1523 109.555 32.1523 109.5H30.1523Z" fill="black" mask="url(#path-12-inside-5_3566_2643)"/>
<mask id="path-14-inside-6_3566_2643" fill="white">
<path fill-rule="evenodd" clip-rule="evenodd" d="M59.4243 96.9229C55.9194 96.9229 53.0781 99.7641 53.0781 103.269V109.5C53.0781 110.243 53.7394 110.769 54.4829 110.769H64.3657C65.1092 110.769 65.7704 110.243 65.7704 109.5V103.269C65.7704 99.7641 62.9292 96.9229 59.4243 96.9229Z"/>
</mask>
<path fill-rule="evenodd" clip-rule="evenodd" d="M59.4243 96.9229C55.9194 96.9229 53.0781 99.7641 53.0781 103.269V109.5C53.0781 110.243 53.7394 110.769 54.4829 110.769H64.3657C65.1092 110.769 65.7704 110.243 65.7704 109.5V103.269C65.7704 99.7641 62.9292 96.9229 59.4243 96.9229Z" fill="white"/>
<path d="M54.0781 103.269C54.0781 100.316 56.4717 97.9229 59.4243 97.9229V95.9229C55.3671 95.9229 52.0781 99.2118 52.0781 103.269H54.0781ZM54.0781 109.5V103.269H52.0781V109.5H54.0781ZM54.4829 111.769H64.3657V109.769H54.4829V111.769ZM64.7704 103.269V109.5H66.7704V103.269H64.7704ZM59.4243 97.9229C62.3769 97.9229 64.7704 100.316 64.7704 103.269H66.7704C66.7704 99.2118 63.4815 95.9229 59.4243 95.9229V97.9229ZM64.3657 111.769C65.5249 111.769 66.7704 110.923 66.7704 109.5H64.7704C64.7704 109.555 64.7516 109.606 64.691 109.658C64.6222 109.718 64.5065 109.769 64.3657 109.769V111.769ZM52.0781 109.5C52.0781 110.923 53.3237 111.769 54.4829 111.769V109.769C54.3421 109.769 54.2264 109.718 54.1576 109.658C54.097 109.606 54.0781 109.555 54.0781 109.5H52.0781Z" fill="black" mask="url(#path-14-inside-6_3566_2643)"/>
<path d="M119.502 23.0769C119.502 35.5458 109.393 45.6538 96.9246 45.6538C84.4557 45.6538 74.3477 35.5458 74.3477 23.0769C74.3477 10.608 84.4557 0.5 96.9246 0.5C109.393 0.5 119.502 10.608 119.502 23.0769Z" fill="white" stroke="black"/>
</g>
<defs>
<clipPath id="clip0_3566_2643">
<rect width="120" height="120" fill="white"/>
</clipPath>
</defs>
</svg>
