<svg width="120" height="120" viewBox="0 0 120 120" fill="none" xmlns="http://www.w3.org/2000/svg">
<g clip-path="url(#clip0_3566_2621)">
<rect x="0.5" y="0.5" width="119" height="119" fill="white" stroke="black"/>
<path d="M30 0V120" stroke="black"/>
<path d="M120 30L1.3113e-06 30" stroke="black"/>
<path d="M60 0V120" stroke="black"/>
<path d="M120 60L1.3113e-06 60" stroke="black"/>
<path d="M90 0V120" stroke="black"/>
<path d="M120 90L1.3113e-06 90" stroke="black"/>
<path d="M119.5 119.5H1.15544C5.82867 114.622 9.86673 112.168 13.4738 111.124C17.2748 110.023 20.6568 110.472 23.8974 111.395C25.327 111.802 26.7198 112.299 28.114 112.796C28.3058 112.864 28.4976 112.933 28.6895 113.001C30.2692 113.562 31.8546 114.107 33.4596 114.484C36.6865 115.241 40.0154 115.322 43.6501 113.526C46.4052 112.164 48.1687 109.129 49.5823 105.525C50.4571 103.295 51.2255 100.766 52.0082 98.1899C52.4894 96.6058 52.976 95.0041 53.4961 93.4433C54.8768 89.2997 56.5086 85.3832 58.9406 82.5043C61.352 79.6498 64.5551 77.808 69.1429 77.808C76.1526 77.808 79.735 81.4638 82.7576 84.5483C82.9603 84.7552 83.1605 84.9595 83.359 85.1599C84.9146 86.7305 86.446 88.1508 88.3356 88.5085C90.2702 88.8748 92.4222 88.1115 95.181 85.7659C97.416 83.8657 99.502 81.8285 101.515 79.8531L101.727 79.6457C103.669 77.7396 105.543 75.9002 107.44 74.2806C111.231 71.0423 115.04 68.7463 119.5 68.5861V119.5Z" fill="#C8F3CF" stroke="black"/>
</g>
<defs>
<clipPath id="clip0_3566_2621">
<rect width="120" height="120" fill="white"/>
</clipPath>
</defs>
</svg>
