<svg width="24" height="24" viewBox="0 0 24 24" fill="none" xmlns="http://www.w3.org/2000/svg">
<g opacity="0.4">
<path fill-rule="evenodd" clip-rule="evenodd" d="M19.5 7C20.8807 7 22 5.88071 22 4.5C22 3.11929 20.8807 2 19.5 2C18.1193 2 17 3.11929 17 4.5C17 4.60458 17.0064 4.70765 17.0189 4.80886L6.23551 10.2005C5.78587 9.76679 5.17409 9.5 4.5 9.5C3.11929 9.5 2 10.6193 2 12C2 13.3807 3.11929 14.5 4.5 14.5C5.15434 14.5 5.74996 14.2486 6.19556 13.8372L17.0003 19.5397C17.0215 20.9021 18.1325 22 19.5 22C20.8807 22 22 20.8807 22 19.5C22 18.1193 20.8807 17 19.5 17C18.7083 17 18.0025 17.368 17.5445 17.9423L6.97379 12.3633C6.99106 12.2447 7 12.1234 7 12C7 11.8954 6.99358 11.7923 6.98111 11.6911L17.7645 6.29945C18.2141 6.73321 18.8259 7 19.5 7Z" fill="black"/>
</g>
</svg>
